HIERARCHY
ROOT Hips
{
	OFFSET 0.00000 0.00000 0.00000
	CHANNELS 6 Xposition Yposition Zposition Zrotation Yrotation Xrotation 
	JOINT LHipJoint
	{
		OFFSET 0 0 0
		CHANNELS 3 Zrotation Yrotation Xrotation
		JOINT LeftHip
		{
			OFFSET 1.41261 -1.82971 0.84908
			CHANNELS 3 Zrotation Yrotation Xrotation
			JOINT LeftKnee
			{
				OFFSET 2.52554 -6.93888 0.00000
				CHANNELS 3 Zrotation Yrotation Xrotation
				JOINT LeftAnkle
				{
					OFFSET 2.56654 -7.05152 0.00000
					CHANNELS 3 Zrotation Yrotation Xrotation
					JOINT LeftToe
					{
						OFFSET 0.21698 -0.59616 1.85369
						CHANNELS 3 Zrotation Yrotation Xrotation
						End Site
						{
							OFFSET 0.00000 -0.00000 0.97832
						}
					}
				}
			}
		}
	}
	JOINT RHipJoint
	{
		OFFSET 0 0 0
		CHANNELS 3 Zrotation Yrotation Xrotation
		JOINT RightHip
		{
			OFFSET -1.12808 -1.82971 0.84907
			CHANNELS 3 Zrotation Yrotation Xrotation
			JOINT RightKnee
			{
				OFFSET -2.53425 -6.96280 0.00000
				CHANNELS 3 Zrotation Yrotation Xrotation
				JOINT RightAnkle
				{
					OFFSET -2.58413 -7.09983 0.00000
					CHANNELS 3 Zrotation Yrotation Xrotation
					JOINT RightToe
					{
						OFFSET -0.26437 -0.72636 1.92241
						CHANNELS 3 Zrotation Yrotation Xrotation
						End Site
						{
							OFFSET -0.00000 -0.00000 1.02667
						}
					}
				}
			}
		}
	}
	JOINT lowerback
	{
		OFFSET 0 0 0
		CHANNELS 3 Zrotation Yrotation Xrotation
		JOINT Chest
		{
			OFFSET -0.02096 2.02288 -0.14752
			CHANNELS 3 Zrotation Yrotation Xrotation
			JOINT Chest2
			{
				OFFSET 0.03477 2.03136 -0.02358
				CHANNELS 3 Zrotation Yrotation Xrotation
				JOINT lowerneck
				{
					OFFSET 0 0 0
					CHANNELS 3 Zrotation Yrotation Xrotation
					JOINT Neck
					{
						OFFSET 0.00174 1.74359 0.19336
						CHANNELS 3 Zrotation Yrotation Xrotation
						JOINT Head
						{
							OFFSET -0.03054 1.76140 -0.17751
							CHANNELS 3 Zrotation Yrotation Xrotation
							End Site
							{
								OFFSET -0.00863 1.77239 -0.08120
							}
						}
					}
				}
				JOINT LeftCollar
				{
					OFFSET 0 0 0
					CHANNELS 3 Zrotation Yrotation Xrotation
					JOINT LeftShoulder
					{
						OFFSET 3.68685 1.32687 -0.67367
CHANNELS 3 Zrotation Xrotation Yrotation
						JOINT LeftElbow
						{
OFFSET 0 -4.764680 -0.000000
CHANNELS 3 Zrotation Xrotation Yrotation
							JOINT LeftWrist
							{
OFFSET 0 -3.527120 -0.000000
CHANNELS 3 Zrotation Xrotation Yrotation
								JOINT lhand
								{
									OFFSET 0 0 0
CHANNELS 3 Zrotation Xrotation Yrotation
									JOINT LFingers
									{
OFFSET 0 -0.859560 -0.000000
CHANNELS 3 Zrotation Xrotation Yrotation
										End Site
										{
OFFSET 0 -0.693000 -0.000000
										}
									}
								}
								JOINT LThumb
								{
OFFSET 0 0.000000 0.000000
CHANNELS 3 Zrotation Xrotation Yrotation
									End Site
									{
OFFSET 0 -0.703580 0.703580
									}
								}
							}
						}
					}
				}
				JOINT RightCollar
				{
					OFFSET 0 0 0
					CHANNELS 3 Zrotation Yrotation Xrotation
					JOINT RightShoulder
					{
						OFFSET -3.31304 1.28268 -0.97357
CHANNELS 3 Zrotation Xrotation Yrotation
						JOINT RightElbow
						{
OFFSET 0 -4.905770 -0.000000
CHANNELS 3 Zrotation Xrotation Yrotation
							JOINT RightWrist
							{
OFFSET 0 -3.426920 0.000000
CHANNELS 3 Zrotation Xrotation Yrotation
								JOINT rhand
								{
									OFFSET 0 0 0
CHANNELS 3 Zrotation Xrotation Yrotation
									JOINT RFingers
									{
OFFSET 0 -0.740960 -0.000000
CHANNELS 3 Zrotation Xrotation Yrotation
										End Site
										{
OFFSET 0 -0.597380 -0.000000
										}
									}
								}
								JOINT RThumb
								{
OFFSET 0 0.000000 0.000000
CHANNELS 3 Zrotation Xrotation Yrotation
									End Site
									{
OFFSET 0 -0.606500 0.606500
									}
								}
							}
						}
					}
				}
			}
		}
	}
}
MOTION
Frames: 11
Frame Time: 0.008333333333333333
0.101900 17.983600 -3.525400 -1.651400 2.106800 1.914300 0.000000 0.000000 0.000000 -16.899400 1.884900 2.145100 0.219100 3.013300 8.315700 0.455000 -1.665900 -12.273200 2.506800 -9.850200 -28.493000 0.000000 0.000000 0.000000 20.354300 0.080200 -1.095500 -0.599600 -4.956800 13.785400 -0.521400 -4.122100 -15.771400 -0.479500 -4.440500 12.319300 -2.479000 -1.666100 3.604000 1.883100 -2.287900 -1.310100 3.476000 -1.070000 -3.197100 -10.275300 -9.802500 -8.608600 4.587000 -12.671100 16.317500 1.915900 -6.354000 7.382000 0.000000 -0.000000 0.000000 -6.978600 6.970400 0.261400 18.820000 -29.194400 4.942700 6.223200 3.721500 12.163800 0.000000 0.000000 0.000000 -7.125000 0.000000 0.000000 -14.549700 17.963700 -9.670500 0.000000 -0.000000 0.000000 -1.516600 -4.194000 12.737100 -9.157300 -15.410800 -1.241600 -3.579100 10.255400 35.945600 0.000000 0.000000 0.000000 7.125000 0.000000 -0.000000 36.116000 62.280900 -16.294700
0.103323 17.984457 -3.519046 -1.579535 1.951874 1.915260 0.000000 0.000000 0.000000 -16.985703 1.956396 2.187752 0.217572 3.002771 8.286432 0.454705 -1.620207 -12.279282 2.601276 -10.019632 -29.040446 0.000000 0.000000 0.000000 20.276786 0.215311 -1.067861 -0.604320 -4.975987 13.840094 -0.526561 -4.079455 -15.807078 -0.486498 -4.472518 12.410071 -2.581896 -1.642006 3.517071 1.901283 -2.258562 -1.308674 3.547887 -1.054274 -3.144444 -10.213601 -9.160665 -7.651328 5.035061 -11.936832 15.486528 2.195061 -5.982735 6.911402 0.000000 0.000000 0.000000 -7.067860 6.950912 0.262025 18.839015 -29.218202 4.952032 6.419626 3.885258 12.153366 0.000000 0.000000 0.000000 -7.125000 0.000000 0.000000 -14.416318 17.965926 -9.575142 0.000000 0.000000 0.000000 -1.388883 -4.338306 11.680547 -9.025030 -15.200265 -1.206706 -4.876512 10.973641 35.428296 0.000000 0.000000 0.000000 7.125000 0.000000 0.000000 34.226260 62.192551 -15.261314
0.105318 17.983740 -3.515525 -1.547195 1.879990 1.913983 0.000000 0.000000 0.000000 -17.034082 1.992234 2.183861 0.219492 3.016101 8.323549 0.452900 -1.541367 -12.271226 2.652056 -10.109212 -29.331131 0.000000 0.000000 0.000000 20.230789 0.237953 -1.088910 -0.610166 -4.999678 13.907656 -0.531897 -4.000378 -15.820129 -0.491017 -4.493083 12.468161 -2.592382 -1.636631 3.454826 1.892060 -2.250983 -1.304309 3.541392 -1.051202 -3.105429 -10.242759 -9.084472 -7.801520 5.008275 -11.824240 15.827950 2.190913 -5.930435 7.039233 0.000000 0.000000 0.000000 -7.069289 6.946183 0.108216 18.868961 -29.255523 4.966666 6.523797 3.775609 12.122947 0.000000 0.000000 0.000000 -7.125000 0.000000 0.000000 -14.347078 17.991326 -9.517672 0.000000 0.000000 0.000000 -1.197087 -4.454540 10.846883 -8.881432 -14.971245 -1.169304 -7.072867 11.656139 34.740519 0.000000 0.000000 0.000000 7.125000 0.000000 0.000000 31.243232 62.180919 -13.770645
0.106852 17.981643 -3.513143 -1.601597 1.831100 1.887892 0.000000 0.000000 0.000000 -16.976081 2.034449 2.170381 0.222105 3.033544 8.372140 0.458521 -1.511568 -12.356628 2.623513 -10.058828 -29.167653 0.000000 0.000000 0.000000 20.287263 0.232660 -1.072352 -0.613081 -5.011226 13.940619 -0.536803 -3.940560 -15.841121 -0.495060 -4.511154 12.519341 -2.528708 -1.641787 3.423154 1.909581 -2.253724 -1.298090 3.522456 -1.054184 -3.082600 -10.336118 -9.158512 -8.041282 4.910123 -11.892966 16.303450 2.146803 -5.972821 7.241410 0.000000 0.000000 0.000000 -7.056874 6.947098 -0.058714 18.914955 -29.312798 4.989158 6.488159 3.765526 12.014918 0.000000 0.000000 0.000000 -7.125000 0.000000 0.000000 -14.378490 18.097914 -9.504819 0.000000 0.000000 0.000000 -0.932295 -4.491535 9.414816 -8.910875 -15.018260 -1.176978 -7.812357 12.899917 34.439067 0.000000 0.000000 0.000000 7.125000 0.000000 0.000000 30.164531 62.113692 -13.197047
0.107272 17.979263 -3.510074 -1.734215 1.771405 1.834651 0.000000 0.000000 0.000000 -16.811636 2.093639 2.185172 0.223203 3.041107 8.393346 0.471420 -1.519790 -12.532792 2.498667 -9.835079 -28.444687 0.000000 0.000000 0.000000 20.449500 0.258534 -0.991800 -0.612366 -5.008451 13.932757 -0.537555 -3.959298 -15.862302 -0.501207 -4.538696 12.597401 -2.430994 -1.657135 3.394533 1.959995 -2.267574 -1.281445 3.518830 -1.063439 -3.049768 -10.153928 -9.058118 -8.002896 4.625070 -11.743214 16.512532 2.044074 -5.914758 7.261932 0.000000 0.000000 0.000000 -7.054885 6.996345 -0.305738 19.051296 -29.482348 5.056107 6.520288 3.722459 11.475476 0.000000 0.000000 0.000000 -7.125000 0.000000 0.000000 -14.392546 18.622183 -9.341815 0.000000 0.000000 0.000000 -0.478883 -4.519411 6.602252 -9.115713 -15.344658 -1.230628 -7.403263 15.411063 34.344896 0.000000 0.000000 0.000000 7.125000 0.000000 0.000000 30.484417 61.931253 -13.219464
0.109000 17.978269 -3.506493 -1.755969 1.717710 1.817306 0.000000 0.000000 0.000000 -16.793802 2.151622 2.139747 0.227715 3.071357 8.477479 0.478830 -1.542669 -12.628339 2.440054 -9.728084 -28.100598 0.000000 0.000000 0.000000 20.468197 0.232039 -0.972842 -0.612292 -5.008184 13.931990 -0.536669 -3.946608 -15.843076 -0.489823 -4.487454 12.452309 -2.420371 -1.685881 3.336270 1.964265 -2.304449 -1.283799 3.517143 -1.082636 -3.016712 -9.843779 -8.834389 -7.833257 4.318705 -11.445016 16.584794 1.939942 -5.782107 7.194976 0.000000 0.000000 0.000000 -7.035305 7.052379 -0.414236 19.132810 -29.583380 5.096309 6.565450 3.673365 11.110325 0.000000 0.000000 0.000000 -7.125000 0.000000 0.000000 -14.386721 18.976236 -9.220620 0.000000 0.000000 0.000000 -0.320601 -4.428794 5.969109 -9.191822 -15.465644 -1.250792 -7.046638 15.980155 34.474120 0.000000 0.000000 0.000000 7.125000 0.000000 0.000000 30.985426 61.950946 -13.474808
0.111897 17.977579 -3.503357 -1.626336 1.689865 1.828087 0.000000 0.000000 0.000000 -16.979657 2.134912 2.079674 0.234365 3.115485 8.600447 0.484378 -1.516420 -12.709396 2.431470 -9.712189 -28.049551 0.000000 0.000000 0.000000 20.292781 0.163752 -1.005418 -0.613838 -5.014553 13.950067 -0.541273 -3.881381 -15.857212 -0.489075 -4.484060 12.442562 -2.535307 -1.709961 3.267213 1.933366 -2.341417 -1.290798 3.549238 -1.099898 -2.978999 -9.742104 -8.726845 -7.853523 4.170722 -11.289802 16.751280 1.891035 -5.714052 7.226328 0.000000 0.000000 0.000000 -7.064095 7.026214 -0.304391 19.110870 -29.556214 5.085429 6.522215 3.873673 11.162305 0.000000 0.000000 0.000000 -7.125000 0.000000 0.000000 -14.412796 18.927130 -9.254773 0.000000 0.000000 0.000000 -0.324299 -4.348334 6.019572 -9.191619 -15.465289 -1.250734 -6.907417 15.995042 34.770871 0.000000 0.000000 0.000000 7.125000 0.000000 0.000000 31.445185 62.165282 -13.856182
0.113303 17.975785 -3.500430 -1.586821 1.639569 1.806013 0.000000 0.000000 0.000000 -17.058891 2.021431 2.100325 0.240684 3.157224 8.716824 0.490027 -1.397301 -12.813193 2.390924 -9.636827 -27.808551 0.000000 0.000000 0.000000 20.238425 0.140009 -0.991261 -0.615255 -5.020069 13.965805 -0.542874 -3.865112 -15.866797 -0.472803 -4.409164 12.230788 -2.567643 -1.708831 3.246850 1.928733 -2.341199 -1.292780 3.561917 -1.099400 -2.968525 -9.525118 -8.610614 -8.053177 3.857445 -11.097089 17.068420 1.765320 -5.631873 7.319692 0.000000 0.000000 0.000000 -7.085425 7.021354 -0.276181 19.095409 -29.537049 5.077779 6.474525 4.018113 11.194097 0.000000 0.000000 0.000000 -7.125000 0.000000 0.000000 -14.443438 18.897908 -9.285457 0.000000 0.000000 0.000000 -0.339680 -4.303323 5.936967 -9.145790 -15.392478 -1.238555 -7.057953 16.184594 34.896224 0.000000 0.000000 0.000000 7.125000 0.000000 0.000000 31.427334 62.308510 -13.953646
0.113139 17.973282 -3.496353 -1.642167 1.558024 1.756525 0.000000 0.000000 0.000000 -16.995363 1.980976 2.158033 0.244346 3.181080 8.783290 0.494691 -1.318924 -12.894847 2.377690 -9.612064 -27.729497 0.000000 0.000000 0.000000 20.316379 0.158914 -0.919722 -0.614660 -5.017686 13.958991 -0.539899 -3.879965 -15.840271 -0.448938 -4.298629 11.918347 -2.512173 -1.698662 3.254365 1.937044 -2.324986 -1.315927 3.539368 -1.091329 -2.999760 -9.148798 -8.405396 -8.212312 3.470561 -10.795137 17.370165 1.605804 -5.494947 7.380837 0.000000 0.000000 0.000000 -7.079318 7.076601 -0.232320 19.073761 -29.510207 5.067147 6.500058 3.983067 11.172648 0.000000 0.000000 0.000000 -7.125000 0.000000 0.000000 -14.427369 18.917845 -9.267803 0.000000 0.000000 0.000000 -0.280259 -4.212504 5.622452 -9.101960 -15.322832 -1.226951 -7.163946 16.560570 34.926451 0.000000 0.000000 0.000000 7.125000 0.000000 0.000000 31.351880 62.360798 -13.955226
0.112719 17.971293 -3.491359 -1.709014 1.484871 1.705220 0.000000 0.000000 0.000000 -16.901194 2.038936 2.213094 0.246589 3.195577 8.823592 0.500022 -1.276175 -12.976769 2.362444 -9.583458 -27.637963 0.000000 0.000000 0.000000 20.405807 0.187466 -0.839661 -0.614675 -5.017801 13.959222 -0.545217 -3.839943 -15.879015 -0.467016 -4.382939 12.156641 -2.467203 -1.703818 3.236766 1.959478 -2.328900 -1.347100 3.537679 -1.093159 -3.022580 -8.740824 -8.059556 -8.334057 3.166090 -10.325421 17.725717 1.486421 -5.270460 7.447195 0.000000 0.000000 0.000000 -7.089516 7.099000 -0.045195 19.002513 -29.421826 5.032075 6.481100 3.974400 11.111490 0.000000 0.000000 0.000000 -7.125000 0.000000 0.000000 -14.444708 18.978029 -9.259694 0.000000 0.000000 0.000000 -0.219593 -4.108871 5.270598 -9.051980 -15.243229 -1.213735 -6.954760 16.882496 35.138449 0.000000 0.000000 0.000000 7.125000 0.000000 0.000000 31.798765 62.484669 -14.269015
0.113684 17.970054 -3.485709 -1.702379 1.437737 1.687865 0.000000 0.000000 0.000000 -16.909356 2.099269 2.221793 0.249400 3.213252 8.872994 0.504723 -1.269706 -13.040865 2.354614 -9.568567 -27.590683 0.000000 0.000000 0.000000 20.390605 0.164548 -0.822596 -0.616876 -5.026660 13.984695 -0.551245 -3.788948 -15.919565 -0.480185 -4.443717 12.328335 -2.498002 -1.719085 3.267548 1.992850 -2.350185 -1.453545 3.594663 -1.098902 -3.145787 -8.433816 -7.572775 -8.538063 2.995268 -9.669533 18.266453 1.438992 -4.952357 7.593910 0.000000 0.000000 0.000000 -7.149757 7.198833 0.169082 18.898114 -29.291895 4.980907 6.427125 4.075636 11.015255 0.000000 0.000000 0.000000 -7.125000 0.000000 0.000000 -14.488906 19.073724 -9.257948 0.000000 0.000000 0.000000 -0.225548 -3.888785 4.984516 -9.013962 -15.182762 -1.203808 -7.015212 17.111543 35.169086 0.000000 0.000000 0.000000 7.125000 0.000000 0.000000 31.770903 62.525728 -14.285859
